<svg width="887" height="186" viewBox="0 0 887 186" fill="none" xmlns="http://www.w3.org/2000/svg">
<path d="M295.366 0C298.622 4.51677e-05 301.813 0.481959 304.85 1.39355C307.869 0.485876 311.062 0 314.354 0H355.735C357.394 2.36781e-05 359.04 0.12883 360.658 0.373047C362.275 0.129141 363.928 0 365.606 0H407.366C417.139 0.000144279 426.409 4.33155 432.679 11.8271C438.715 19.0437 441.366 28.4779 440.015 37.7539C440.249 37.5674 440.485 37.3817 440.722 37.1973C446.92 28.6425 454.88 20.8474 464.463 14.6777C487.862 -0.3861 518.581 -4.36995 552.411 8.72559C554.861 9.67376 557.136 10.8871 559.217 12.3184C560.682 11.4907 562.172 10.6961 563.69 9.94043C576.712 3.41919 590.703 0 605.308 0C618.999 6.29717e-05 632.457 3.02703 644.699 9.96484C650.584 4.6728 658.353 1.50008 666.765 1.5H698.167L698.762 1.50488C702.94 1.57988 706.987 2.44451 710.725 3.9834C714.614 2.38069 718.861 1.50003 723.288 1.5H762.366C765.631 1.50004 768.838 1.98599 771.898 2.90918C773.521 2.65197 775.181 2.512 776.867 2.50098L853.369 2.00098C863.272 1.9364 872.682 6.32258 878.999 13.9492C885.316 21.5759 887.874 31.6367 885.967 41.3545L879.881 72.3672C879.041 76.646 877.395 80.5962 875.119 84.0732L875.498 84L873.785 85.9639C872.891 87.141 871.92 88.2533 870.881 89.2959L834.748 130.75L801.136 169.31C799.506 171.78 797.558 174.01 795.353 175.945L793.998 177.5L794.241 176.878C788.549 181.447 781.339 184.142 773.587 184.142H742.498C739.576 184.142 736.699 183.751 733.933 183.008C732.083 183.33 730.183 183.5 728.25 183.5H632.998C624.675 183.5 616.715 180.355 610.661 174.787C598.009 181 584.431 184.262 570.261 184.262C555.64 184.262 541.331 180.813 528.445 172.948C528.389 172.914 528.334 172.88 528.279 172.846C526.494 171.742 524.774 170.571 523.116 169.34C518.528 175.199 512.012 179.442 504.516 181.163C489.868 184.527 465.066 186.36 443.012 174.626C437.098 180.044 429.234 183.296 420.717 183.296H389.908C382.13 183.296 374.67 180.55 368.787 175.648C357.502 181.563 343.688 185.333 326.977 185.333C301.399 185.333 281.016 175.791 268.116 159.203C266.058 160.778 263.818 162.109 261.442 163.164L260.521 165.112C255.39 175.958 244.777 183.165 232.803 183.933C221.286 184.671 210.256 179.34 203.67 169.942L199.894 173.871C191.422 182.683 178.773 186.09 167.022 182.726C155.27 179.361 146.341 169.775 143.817 157.815L143.306 155.399C135.911 163.047 127.334 169.346 117.698 174.203L117.699 174.204C117.672 174.217 117.646 174.23 117.619 174.243C117.603 174.252 117.586 174.261 117.569 174.27L117.568 174.269C104.621 180.818 90.6868 184.262 76.1282 184.262C61.5077 184.262 47.1987 180.813 34.3128 172.948C34.2572 172.914 34.2011 172.88 34.1458 172.846C21.2908 164.895 11.6579 153.58 5.78934 139.711C-0.322173 125.268 -1.23058 110.065 1.36746 95.3311C3.05353 85.7692 6.15002 76.7232 10.6136 68.3125C21.4571 45.2277 38.8325 28.9632 55.9505 18.1924C60.1831 15.1126 64.6875 12.3735 69.4544 9.99316L69.5579 9.94043C82.5798 3.41941 96.5709 6.31148e-05 111.175 0C124.43 6.42343e-05 137.466 2.83732 149.392 9.31348C155.512 3.37712 163.739 0 172.366 0H295.366Z" fill="white"/>
<path d="M111.175 33C120.511 33 128.672 35.1606 135.659 39.4818C142.662 43.7111 147.732 49.6413 150.867 57.2724C154.096 64.9035 154.868 73.5 153.182 83.0618C151.496 92.6237 147.693 101.22 141.772 108.851C135.946 116.482 128.73 122.459 120.126 126.78C111.615 131.101 102.739 133.262 93.496 133.262C84.1601 133.262 75.952 131.101 68.8718 126.78C61.8849 122.459 56.7769 116.482 53.5479 108.851C50.3189 101.22 49.5474 92.6237 51.2334 83.0618C52.9194 73.5 56.7225 64.9035 62.6427 57.2724C68.5628 49.6413 75.7702 43.7111 84.2648 39.4818C92.8689 35.1606 101.839 33 111.175 33Z" fill="black"/>
<path d="M443.24 103.059L438.084 132.296H407.276L412.431 103.059H443.24Z" fill="black"/>
<path d="M605.307 33C614.643 33 622.805 35.1606 629.791 39.4818C636.795 43.7111 641.864 49.6413 645 57.2724C648.229 64.9035 649 73.5 647.314 83.0618C645.628 92.6237 641.825 101.22 635.905 108.851C630.078 116.482 622.863 122.459 614.258 126.78C605.748 131.101 596.871 133.262 587.628 133.262C578.293 133.262 570.084 131.101 563.004 126.78C556.017 122.459 550.909 116.482 547.68 108.851C544.451 101.22 543.68 92.6237 545.366 83.0618C547.052 73.5 550.855 64.9035 556.775 57.2724C562.695 49.6413 569.903 43.7111 578.397 39.4818C587.001 35.1606 595.971 33 605.307 33Z" fill="black"/>
<path d="M304.482 94.3333L314.353 33H355.734L344.345 97.381H355.734L365.605 33H407.366L396.356 94.3333C393.952 107.667 380.183 134.333 344.345 134.333C308.506 134.333 302.837 107.667 304.482 94.3333Z" fill="black"/>
<path d="M193.472 133L172.366 33H295.366L248.058 133L226.224 98.9341L193.472 133Z" fill="black"/>
<path d="M650.366 132.5L666.765 34.5H698.166L717.008 73.8514L723.288 34.5H762.366L745.618 132.5H650.366Z" fill="black"/>
<path d="M847.498 66.0127L827.694 66.2988L821.75 96.3193H797.447L790.955 133.142H759.866L777.082 35.5L853.584 35L847.498 66.0127Z" fill="black"/>
<path d="M514.498 131L540.498 39.5001C490.898 20.3001 462.304 54 458.498 77.0001C449.298 132.6 491.998 136.167 514.498 131Z" fill="black"/>
</svg>
