<?xml version="1.0" encoding="UTF-8"?><svg id="Layer_2" xmlns="http://www.w3.org/2000/svg" viewBox="0 0 719.6103 198.418"><g id="Components"><g id="_70a7689e-2366-4752-9f19-81e078db3198_5"><polygon points="252.7868 106.9036 212.073 145.5582 212.073 53.0606 177.3051 53.0606 177.3051 171.5383 229.2248 171.5383 252.7868 149.2437 252.7868 171.5383 287.5452 171.5383 287.5452 53.0606 252.7868 53.0606 252.7868 106.9036" style="fill:#fff;"/><rect x="440.3362" y="53.0606" width="34.768" height="118.4777" style="fill:#fff;"/><path d="M457.7201,0c-10.7514,0-19.6754,8.692-19.6754,19.4432,0,10.7418,8.924,19.4338,19.6754,19.4338,10.9736,0,19.8976-8.692,19.8976-19.4338,0-10.7512-8.924-19.4432-19.8976-19.4432Z" style="fill:#fff;"/><polygon points="539.6592 107.8161 612.391 53.0606 561.3762 53.0606 524.3263 80.7318 524.3263 7.8507 489.5586 7.8507 489.5586 171.5383 524.3263 171.5383 524.3263 115.1644 567.0902 171.5383 609.6412 171.5383 560.375 107.8161 539.6592 107.8161" style="fill:#fff;"/><path d="M686.9406,53.0606v9.1659c-8.8756-7.3384-20.1879-11.7184-33.4144-11.7184-34.1007,0-60.7567,27.594-60.7567,61.6946s26.656,61.743,60.7567,61.743c13.3523,0,24.6064-4.2735,33.4144-11.4765v9.0786h32.6697V53.0606h-32.6697Zm-31.4322,89.2013c-16.5719,0-30.0594-13.4875-30.0594-30.0592s13.4875-30.0592,30.0594-30.0592,30.0592,13.4875,30.0592,30.0592-13.4875,30.0592-30.0592,30.0592Z" style="fill:#fff;"/><path d="M369.0119,50.5081c-13.2073,0-24.5,4.3701-33.3756,11.6891V7.8605h-33.6659V171.5479h33.6659v-9.0496c8.7982,7.1836,20.0427,11.4475,33.3756,11.4475,34.1007,0,60.7567-27.6424,60.7567-61.743s-26.656-61.6946-60.7567-61.6946Zm-1.9724,91.7538c-16.5719,0-30.0594-13.4875-30.0594-30.0592s13.4875-30.0592,30.0594-30.0592,30.0592,13.4875,30.0592,30.0592-13.4875,30.0592-30.0592,30.0592Z" style="fill:#fff;"/><path d="M110.5302,169.3643c32.465-11.3219,55.7579-42.1992,55.7579-78.5266,0-45.9156-37.2236-83.1392-83.1488-83.1392S0,44.9221,0,90.8377s37.2236,83.1491,83.1392,83.1491c2.3114,0,4.5992-.0988,6.8629-.2838l17.3209,24.715h60.0235l-20.3521-29.0537h-36.4643ZM34.6517,90.8377c0-26.7332,21.7541-48.4873,48.4875-48.4873s48.4971,21.7541,48.4971,48.4873-21.7541,48.4971-48.4971,48.4971-48.4875-21.7637-48.4875-48.4971Z" style="fill:#fff;"/></g></g></svg>