<svg width="2492" height="769" viewBox="163 265 2492 769" version="1.1" xmlns="http://www.w3.org/2000/svg" xmlns:xlink="http://www.w3.org/1999/xlink">
    <defs>
        <polygon id="path-1" points="0.00806451612 0.850806452 813.173387 0.850806452 813.173387 768.28629 0.00806451612 768.28629"></polygon>
        <polygon id="path-3" points="0.653225806 0.850806452 813.83871 0.850806452 813.83871 768.282258 0.653225806 768.282258"></polygon>
    </defs>
    <g id="OL_imagotipo_orange_bk_transparent" stroke="none" stroke-width="1" fill="none" fill-rule="evenodd">
        <g id="Group-29-Copy" transform="translate(163.000000, 265.000000)">
            <path d="M1405.26411,216.729839 C1405.26411,201.387097 1404.59879,190.197581 1403.24798,183.141129 C1401.91734,176.346774 1399.1754,170.399194 1395.02218,165.278226 C1391.95766,160.459677 1387.40121,156.669355 1381.37298,153.887097 C1375.62702,150.983871 1368.93347,149.532258 1361.3125,149.532258 C1354.19556,149.532258 1347.66331,150.983871 1341.63508,153.887097 C1335.88911,156.669355 1331.21169,160.459677 1327.58266,165.278226 C1323.97379,170.399194 1321.35282,176.346774 1319.76008,183.141129 C1318.14718,190.197581 1317.36089,201.245968 1317.36089,216.306452 C1317.36089,231.266129 1318.14718,242.193548 1319.76008,249.08871 C1321.35282,256.145161 1323.97379,262.375 1327.58266,267.758065 C1331.21169,271.91129 1335.88911,275.580645 1341.63508,278.745968 C1347.66331,281.810484 1354.19556,283.322581 1361.3125,283.322581 C1368.93347,283.322581 1375.62702,281.810484 1381.37298,278.745968 C1387.40121,275.580645 1391.95766,271.91129 1395.02218,267.758065 C1399.1754,262.375 1401.91734,256.145161 1403.24798,249.08871 C1404.59879,242.193548 1405.26411,231.407258 1405.26411,216.729839 M1275.62702,216.306452 C1275.62702,193.665323 1277.44153,176.28629 1281.03024,164.129032 C1284.78024,152.274194 1290.50605,142.254032 1298.26815,134.08871 C1303.99395,126.971774 1312.01815,120.580645 1322.28024,114.975806 C1332.44153,109.633065 1345.46573,106.830645 1361.35282,106.548387 C1377.76411,106.830645 1391.0504,109.633065 1401.21169,115.016129 C1411.21169,120.66129 1418.95363,127.092742 1424.41734,134.25 C1432.66331,142.375 1438.53024,152.375 1441.99798,164.229839 C1445.3246,176.346774 1446.97782,193.705645 1446.97782,216.306452 C1446.97782,238.927419 1445.30444,256.145161 1441.97782,268 C1438.51008,279.854839 1432.62298,290.137097 1424.35685,298.806452 C1421.69556,301.991935 1418.42944,305.076613 1414.55847,308.100806 C1411.09073,311.548387 1406.61492,314.532258 1401.15121,317.012097 C1391.01008,322.939516 1377.72379,326.024194 1361.3125,326.306452 C1345.4254,326.024194 1332.40121,322.939516 1322.26008,317.012097 C1311.99798,311.629032 1303.99395,305.560484 1298.24798,298.806452 C1290.50605,290.137097 1284.78024,279.854839 1281.03024,268 C1277.44153,256.145161 1275.62702,238.927419 1275.62702,216.306452" id="Fill-1" fill="#555555"></path>
            <path d="M1497.66331,109.229839 L1539.39718,109.229839 L1539.39718,131.971774 L1540.26411,131.971774 C1554.01411,115.016129 1572.03831,106.548387 1594.35685,106.548387 C1611.0504,106.830645 1625.60685,112.314516 1638.02621,123.040323 L1607.54234,160.298387 C1598.73185,153.120968 1589.57863,149.532258 1580.08266,149.532258 C1569.39718,149.532258 1560.24395,153.120968 1552.64315,160.278226 C1544.0746,167.334677 1539.65927,178.705645 1539.39718,194.451613 L1539.39718,323.826613 L1497.66331,323.826613 L1497.66331,109.229839 Z" id="Fill-3" fill="#555555"></path>
            <path d="M1780.90524,232.836694 L1730.78427,232.836694 C1706.42944,233.381048 1694.39315,242.010081 1694.6754,258.703629 C1694.6754,266.022177 1697.8004,272.211694 1704.09073,277.3125 C1710.09879,282.977823 1720.05847,285.800403 1733.98992,285.800403 C1751.48992,286.082661 1763.84879,283.945565 1771.08669,279.409274 C1777.63911,274.832661 1780.90524,264.489919 1780.90524,248.360887 L1780.90524,232.836694 Z M1780.90524,304.8125 L1780.11895,304.8125 C1776.24798,312.131048 1770.23992,317.493952 1762.09476,320.921371 C1754.09073,324.510081 1743.02218,326.304435 1728.88911,326.304435 C1705.66331,326.022177 1687.78024,319.691532 1675.23992,307.272177 C1662.03427,295.175403 1655.42137,279.65121 1655.42137,260.780242 C1655.42137,242.715726 1661.16734,227.77621 1672.63911,215.921371 C1684.11089,203.804435 1700.9254,197.594758 1723.08266,197.3125 L1780.90524,197.3125 L1780.90524,174.671371 C1781.1875,155.719758 1766.97379,146.506048 1738.26411,147.050403 C1727.84073,147.050403 1719.65524,148.159274 1713.64718,150.377016 C1707.37702,152.997984 1702.41734,157.433468 1698.82863,163.663306 L1665.98589,137.796371 C1681.85282,116.425403 1705.26008,106.002016 1736.20766,106.546371 C1762.33669,106.284274 1783.22379,111.385081 1798.82863,121.84879 C1814.43347,132.594758 1822.37702,151.0625 1822.63911,177.252016 L1822.63911,323.824597 L1780.90524,323.824597 L1780.90524,304.8125 Z" id="Fill-5" fill="#555555"></path>
            <path d="M1883.44556,109.229839 L1925.17944,109.229839 L1925.17944,131.971774 L1925.96573,131.971774 C1939.71573,115.016129 1957.71976,106.548387 1979.99798,106.548387 C1997.21573,106.548387 2012.94153,112.818548 2027.21573,125.358871 C2041.34879,138.040323 2048.74798,156.649194 2049.41331,181.165323 L2049.41331,323.826613 L2007.6996,323.826613 L2007.6996,195.903226 C2007.6996,180.862903 2003.82863,169.391129 1996.08669,161.548387 C1988.46573,153.524194 1978.66734,149.532258 1966.63105,149.532258 C1954.61492,149.532258 1944.73589,153.524194 1936.99395,161.548387 C1929.13105,169.391129 1925.17944,180.862903 1925.17944,195.903226 L1925.17944,323.826613 L1883.44556,323.826613 L1883.44556,109.229839 Z" id="Fill-7" fill="#555555"></path>
            <path d="M2145.14919,216.729839 C2145.14919,233.181452 2145.67339,244.532258 2146.74194,250.741935 C2147.66935,257.254032 2149.86694,262.637097 2153.35484,266.931452 C2156.15726,270.822581 2160.43145,274.330645 2166.17742,277.516129 C2171.64113,281.387097 2178.45565,283.322581 2186.60081,283.322581 C2194.74597,283.322581 2201.56048,281.387097 2207.02419,277.516129 C2212.50806,274.330645 2216.64113,270.822581 2219.46371,266.931452 C2222.91129,262.637097 2225.27016,257.254032 2226.45968,250.741935 C2227.26613,244.532258 2227.66935,233.181452 2227.66935,216.729839 C2227.66935,199.995968 2227.26613,188.383065 2226.45968,181.870968 C2225.27016,175.379032 2222.91129,170.116935 2219.46371,166.125 C2216.64113,162.254032 2212.50806,158.443548 2207.02419,154.71371 C2201.56048,151.548387 2194.74597,149.814516 2186.60081,149.532258 C2178.45565,149.814516 2171.64113,151.548387 2166.17742,154.71371 C2160.43145,158.443548 2156.15726,162.254032 2153.35484,166.125 C2149.86694,170.116935 2147.66935,175.379032 2146.74194,181.870968 C2145.67339,188.383065 2145.14919,199.995968 2145.14919,216.729839 L2145.14919,216.729839 Z M2227.66935,301.407258 C2213.91935,317.455645 2196.03629,325.741935 2174.06048,326.306452 C2160.57258,326.024194 2149.3629,323.060484 2140.43145,317.395161 C2131.09677,312.032258 2123.95968,306.225806 2119.02016,300.03629 C2113.55645,293 2109.60484,284.370968 2107.22581,274.169355 C2104.68548,264.108871 2103.41532,244.915323 2103.41532,216.649194 C2103.41532,187.818548 2104.68548,168.322581 2107.22581,158.120968 C2109.60484,148.040323 2113.55645,139.552419 2119.02016,132.657258 C2123.95968,125.943548 2131.09677,119.915323 2140.43145,114.572581 C2149.3629,109.512097 2160.57258,106.830645 2174.06048,106.548387 C2194.72581,106.548387 2212.58871,115.016129 2227.66935,131.971774 L2227.66935,109.229839 L2269.38306,109.229839 L2269.38306,318.665323 C2268.85887,350.903226 2259.84677,374.612903 2242.3871,389.774194 C2224.78629,405.33871 2203.71774,413.120968 2179.18145,413.120968 C2151.07661,412.576613 2127.08468,400.620968 2107.20565,377.233871 L2139.625,350.620968 C2144.94758,355.741935 2151.09677,360.096774 2158.03226,363.705645 C2165.08871,367.717742 2172.44758,369.875 2180.02823,370.137097 C2194.30242,370.137097 2205.79435,366.064516 2214.46371,357.899194 C2222.99194,349.592742 2227.3871,338.100806 2227.66935,323.423387 L2227.66935,301.407258 Z" id="Fill-9" fill="#555555"></path>
            <path d="M2449.89113,197.316532 C2449.36694,180.5625 2445.0121,167.881048 2436.84677,159.292339 C2428.82258,151.127016 2418.5,147.054435 2405.93952,147.054435 C2393.35887,147.054435 2383.07661,151.127016 2375.03226,159.292339 C2367.14919,167.881048 2362.79435,180.5625 2362.00806,197.316532 L2449.89113,197.316532 Z M2362.00806,232.840726 C2362.00806,250.078629 2366.80645,263.183468 2376.40323,272.155242 C2385.375,281.247984 2397.12903,285.804435 2411.66532,285.804435 C2428.64113,285.804435 2443.80242,278.84879 2457.14919,264.917339 L2487.41129,291.590726 C2466.20161,315.018145 2441.24194,326.570565 2412.55242,326.288306 C2401.60484,326.288306 2390.91935,324.635081 2380.53629,321.328629 C2375.31452,319.534274 2370.25403,317.135081 2365.31452,314.110887 C2360.1129,311.489919 2355.23387,308.243952 2350.69758,304.393145 C2341.90726,296.389113 2334.75,285.219758 2329.28629,270.885081 C2323.27823,257.114919 2320.25403,239.191532 2320.25403,217.135081 C2320.25403,195.925403 2322.875,178.284274 2328.07661,164.211694 C2333.27823,149.877016 2339.95161,138.586694 2348.09677,130.320565 C2356.3629,121.913306 2365.6371,115.844758 2375.91935,112.114919 C2386.06048,108.405242 2396.06048,106.550403 2405.93952,106.550403 C2429.68952,106.832661 2449.77016,114.877016 2466.20161,130.743952 C2482.875,146.872984 2491.34274,169.070565 2491.60484,197.316532 L2491.60484,232.840726 L2362.00806,232.840726 Z" id="Fill-11" fill="#555555"></path>
            <path d="M1289.91734,357.997984 L1331.65121,357.997984 L1331.65121,604.227823 C1331.65121,614.02621 1336.87298,618.905242 1347.31653,618.905242 L1361.75202,618.905242 L1361.75202,659.409274 L1343.16331,659.409274 C1327.96169,659.409274 1315.42137,655.518145 1305.52218,647.675403 C1295.13911,639.731855 1289.91734,626.344758 1289.91734,607.534274 L1289.91734,357.997984 Z" id="Fill-13" fill="#888888"></path>
            <path d="M1518.37702,552.324597 C1518.37702,536.981855 1517.71169,525.792339 1516.36089,518.735887 C1515.03024,511.941532 1512.28831,505.993952 1508.13508,500.872984 C1505.07056,496.054435 1500.51411,492.264113 1494.48589,489.481855 C1488.73992,486.578629 1482.04637,485.127016 1474.4254,485.127016 C1467.32863,485.127016 1460.79637,486.578629 1454.76815,489.481855 C1449.02218,492.264113 1444.3246,496.054435 1440.69556,500.872984 C1437.10685,505.993952 1434.48589,511.941532 1432.89315,518.735887 C1431.28024,525.792339 1430.49395,536.840726 1430.49395,551.90121 C1430.49395,566.860887 1431.28024,577.788306 1432.89315,584.683468 C1434.48589,591.739919 1437.10685,597.969758 1440.69556,603.352823 C1444.3246,607.506048 1449.02218,611.175403 1454.76815,614.340726 C1460.79637,617.405242 1467.32863,618.917339 1474.4254,618.917339 C1482.04637,618.917339 1488.73992,617.405242 1494.48589,614.340726 C1500.51411,611.175403 1505.07056,607.506048 1508.13508,603.352823 C1512.28831,597.969758 1515.03024,591.739919 1516.36089,584.683468 C1517.71169,577.788306 1518.37702,567.002016 1518.37702,552.324597 M1388.73992,551.90121 C1388.73992,529.260081 1390.55444,511.881048 1394.16331,499.72379 C1397.89315,487.868952 1403.63911,477.84879 1411.38105,469.683468 C1417.12702,462.566532 1425.13105,456.175403 1435.41331,450.570565 C1445.5746,445.227823 1458.57863,442.425403 1474.46573,442.143145 C1490.87702,442.425403 1504.16331,445.227823 1514.3246,450.610887 C1524.3246,456.256048 1532.06653,462.6875 1537.53024,469.844758 C1545.77621,477.969758 1551.64315,487.969758 1555.11089,499.824597 C1558.4375,511.941532 1560.09073,529.300403 1560.09073,551.90121 C1560.09073,574.522177 1558.41734,591.739919 1555.09073,603.594758 C1551.62298,615.449597 1545.73589,625.731855 1537.46976,634.40121 C1534.80847,637.586694 1531.54234,640.671371 1527.67137,643.695565 C1524.20363,647.143145 1519.72782,650.127016 1514.26411,652.606855 C1504.12298,658.534274 1490.83669,661.618952 1474.4254,661.90121 C1458.53831,661.618952 1445.53427,658.534274 1435.39315,652.606855 C1425.11089,647.22379 1417.12702,641.155242 1411.36089,634.40121 C1403.63911,625.731855 1397.89315,615.449597 1394.16331,603.594758 C1390.55444,591.739919 1388.73992,574.522177 1388.73992,551.90121" id="Fill-15" fill="#888888"></path>
            <path d="M1730.07056,552.324597 C1730.07056,536.981855 1729.40524,525.792339 1728.05444,518.735887 C1726.72379,511.941532 1723.98185,505.993952 1719.82863,500.872984 C1716.76411,496.054435 1712.20766,492.264113 1706.17944,489.481855 C1700.43347,486.578629 1693.73992,485.127016 1686.11895,485.127016 C1679.02218,485.127016 1672.48992,486.578629 1666.46169,489.481855 C1660.71573,492.264113 1656.01815,496.054435 1652.38911,500.872984 C1648.8004,505.993952 1646.17944,511.941532 1644.58669,518.735887 C1642.97379,525.792339 1642.1875,536.840726 1642.1875,551.90121 C1642.1875,566.860887 1642.97379,577.788306 1644.58669,584.683468 C1646.17944,591.739919 1648.8004,597.969758 1652.38911,603.352823 C1656.01815,607.506048 1660.71573,611.175403 1666.46169,614.340726 C1672.48992,617.405242 1679.02218,618.917339 1686.11895,618.917339 C1693.73992,618.917339 1700.43347,617.405242 1706.17944,614.340726 C1712.20766,611.175403 1716.76411,607.506048 1719.82863,603.352823 C1723.98185,597.969758 1726.72379,591.739919 1728.05444,584.683468 C1729.40524,577.788306 1730.07056,567.002016 1730.07056,552.324597 M1600.43347,551.90121 C1600.43347,529.260081 1602.24798,511.881048 1605.85685,499.72379 C1609.58669,487.868952 1615.33266,477.84879 1623.0746,469.683468 C1628.82056,462.566532 1636.8246,456.175403 1647.10685,450.570565 C1657.26815,445.227823 1670.27218,442.425403 1686.15927,442.143145 C1702.57056,442.425403 1715.85685,445.227823 1726.01815,450.610887 C1736.01815,456.256048 1743.76008,462.6875 1749.22379,469.844758 C1757.46976,477.969758 1763.33669,487.969758 1766.80444,499.824597 C1770.13105,511.941532 1771.78427,529.300403 1771.78427,551.90121 C1771.78427,574.522177 1770.11089,591.739919 1766.78427,603.594758 C1763.31653,615.449597 1757.42944,625.731855 1749.16331,634.40121 C1746.50202,637.586694 1743.23589,640.671371 1739.36492,643.695565 C1735.89718,647.143145 1731.42137,650.127016 1725.95766,652.606855 C1715.81653,658.534274 1702.53024,661.618952 1686.11895,661.90121 C1670.23185,661.618952 1657.22782,658.534274 1647.08669,652.606855 C1636.80444,647.22379 1628.82056,641.155242 1623.05444,634.40121 C1615.33266,625.731855 1609.58669,615.449597 1605.85685,603.594758 C1602.24798,591.739919 1600.43347,574.522177 1600.43347,551.90121" id="Fill-17" fill="#888888"></path>
            <path d="M1905.26008,618.913306 C1915.13911,618.913306 1922.96169,616.977823 1928.6875,613.106855 C1934.43347,609.114919 1938.50605,603.993952 1940.9254,597.764113 C1943.58669,591.272177 1945.38105,584.054435 1946.32863,576.191532 C1946.59073,568.449597 1946.73185,560.506048 1946.73185,552.320565 C1946.73185,543.752016 1946.59073,535.385081 1946.32863,527.219758 C1945.38105,519.074597 1943.58669,511.877016 1940.9254,505.667339 C1938.50605,499.175403 1934.43347,494.054435 1928.6875,490.304435 C1922.96169,486.856855 1915.13911,485.122984 1905.26008,485.122984 C1895.90524,485.122984 1888.50605,487.139113 1883.02218,491.131048 C1877.27621,495.143145 1873.0625,500.405242 1870.40121,506.897177 C1867.88105,513.409274 1866.20766,520.445565 1865.40121,528.066532 C1864.59476,536.090726 1864.21169,544.175403 1864.21169,552.320565 C1864.21169,559.941532 1864.59476,567.542339 1865.40121,575.143145 C1866.20766,583.1875 1867.88105,590.425403 1870.40121,596.917339 C1873.0625,603.429435 1877.27621,608.671371 1883.02218,612.683468 C1888.50605,616.836694 1895.90524,618.913306 1905.26008,618.913306 L1905.26008,618.913306 Z M1822.47782,444.820565 L1864.21169,444.820565 L1864.21169,467.159274 C1878.0625,451.171371 1895.94556,442.844758 1917.84073,442.139113 C1943.3246,442.844758 1961.93347,452.199597 1973.6875,470.264113 C1979.39315,477.018145 1983.3246,485.889113 1985.46169,496.917339 C1987.4375,507.804435 1988.44556,526.272177 1988.44556,552.320565 C1988.44556,577.683468 1987.4375,595.868952 1985.46169,606.897177 C1983.30444,617.925403 1979.37298,626.957661 1973.64718,633.993952 C1967.90121,642.260081 1960.36089,648.872984 1951.04637,653.832661 C1941.8125,658.933468 1930.76411,661.614919 1917.82056,661.897177 C1907.15524,661.897177 1897.59879,659.497984 1889.21169,654.699597 C1880.13911,650.324597 1871.8125,644.27621 1864.21169,636.594758 L1864.21169,746.231855 L1822.47782,746.231855 L1822.47782,444.820565 Z" id="Fill-19" fill="#888888"></path>
            <path d="M2048.28024,593.889113 C2065.29637,612.215726 2087.25202,621.389113 2114.14718,621.389113 C2126.18347,621.389113 2136.04234,618.989919 2143.64315,614.171371 C2151.28427,609.352823 2155.09476,602.59879 2155.09476,593.909274 C2155.09476,586.1875 2152.83669,580.824597 2148.28024,577.780242 C2143.60282,574.594758 2137.37298,572.881048 2129.61089,572.59879 L2092.69556,569.292339 C2075.1754,567.639113 2060.94153,561.570565 2049.97379,551.106855 C2038.72379,540.905242 2032.97782,526.631048 2032.71573,508.304435 C2032.97782,486.247984 2040.51815,469.715726 2055.37702,458.6875 C2069.77218,447.659274 2088.09879,442.155242 2110.25605,442.155242 C2119.89315,442.155242 2128.50202,442.760081 2136.10282,443.989919 C2143.72379,445.381048 2150.88105,447.296371 2157.55444,449.796371 C2170.39718,455.159274 2181.86895,462.397177 2192.03024,471.489919 L2166.14315,502.679435 C2158.11895,496.711694 2149.61089,491.772177 2140.65927,487.860887 C2131.82863,484.372984 2121.66734,482.639113 2110.15524,482.639113 C2097.0504,482.639113 2087.87702,485.058468 2082.65524,489.897177 C2077.19153,494.715726 2074.4496,500.945565 2074.4496,508.52621 C2074.14718,513.344758 2076.24395,517.558468 2080.63911,521.147177 C2084.67137,525.139113 2091.74798,527.699597 2101.92944,528.788306 L2136.4254,531.489919 C2158.09879,533.143145 2173.76411,539.897177 2183.38105,551.772177 C2192.35282,563.364919 2196.82863,578.0625 2196.82863,595.864919 C2196.54637,616.711694 2188.34073,632.780242 2172.19153,644.090726 C2156.16331,655.683468 2135.65927,661.610887 2110.6996,661.893145 C2076.76815,661.893145 2046.24395,649.090726 2019.14718,623.465726 L2048.28024,593.889113 Z" id="Fill-21" fill="#888888"></path>
            <g id="Group-2" transform="translate(0.000000, 0.316532)">
                <g id="Group-25">
                    <mask id="mask-2" fill="white">
                        <use xlink:href="#path-1"></use>
                    </mask>
                    <g id="Clip-24"></g>
                    <path d="M813.173387,384.576613 C813.173387,328.891129 768.032258,283.770161 712.366935,283.770161 C656.701613,283.770161 611.560484,328.891129 611.560484,384.576613 C611.560484,415.020161 625.350806,441.995968 646.701613,460.483871 C613.758065,574.758065 508.596774,658.427419 383.717742,658.427419 C232.467742,658.427419 109.866935,535.806452 109.866935,384.576613 C109.866935,233.326613 232.467742,110.705645 383.717742,110.705645 C385.572581,110.705645 387.346774,110.947581 389.181452,110.987903 C428.556452,64.516129 477.830645,26.8951613 533.677419,0.846774194 L383.717742,0.846774194 C171.802419,0.846774194 0.00806451612,172.641129 0.00806451612,384.576613 C0.00806451612,596.491935 171.802419,768.28629 383.717742,768.28629 C564.483871,768.28629 715.633065,643.145161 756.298387,474.899194 C789.866935,458.528226 813.173387,424.415323 813.173387,384.576613" id="Fill-23" fill="#ED7203" mask="url(#mask-2)"></path>
                </g>
                <g id="Group-28" transform="translate(282.258065, 0.000000)">
                    <mask id="mask-4" fill="white">
                        <use xlink:href="#path-3"></use>
                    </mask>
                    <g id="Clip-27"></g>
                    <path d="M430.108871,0.842741935 C249.362903,0.842741935 98.2137097,125.983871 57.5282258,294.25 C23.9596774,310.600806 0.653225806,344.733871 0.653225806,384.572581 C0.653225806,440.237903 45.7943548,485.379032 101.459677,485.379032 C157.125,485.379032 202.266129,440.237903 202.266129,384.572581 C202.266129,354.108871 188.495968,327.153226 167.145161,308.665323 C200.068548,194.391129 305.229839,110.701613 430.108871,110.701613 C581.358871,110.701613 703.959677,233.322581 703.959677,384.572581 C703.959677,535.822581 581.358871,658.423387 430.108871,658.423387 C428.274194,658.423387 426.479839,658.181452 424.645161,658.16129 C385.270161,704.612903 335.995968,742.233871 280.169355,768.282258 L430.108871,768.282258 C642.044355,768.282258 813.83871,596.487903 813.83871,384.572581 C813.83871,172.637097 642.044355,0.842741935 430.108871,0.842741935" id="Fill-26" fill="#F28F00" mask="url(#mask-4)"></path>
                </g>
            </g>
        </g>
    </g>
</svg>